<?xml version="1.0" encoding="iso-8859-1"?>
<!-- Generator: Adobe Illustrator 19.0.0, SVG Export Plug-In . SVG Version: 6.00 Build 0)  -->
<svg version="1.1" id="Layer_1" xmlns="http://www.w3.org/2000/svg" xmlns:xlink="http://www.w3.org/1999/xlink" x="0px" y="0px"
	 viewBox="0 0 512 512" style="enable-background:new 0 0 512 512;" xml:space="preserve">
<g>
	<g>
		<path fill="white" d="M256,365.497c-6.773,0-13.513-0.081-20.211-0.233v29.441c0,11.16,9.049,20.211,20.211,20.211
			c11.162,0,20.211-9.05,20.211-20.211v-29.441C269.513,365.416,262.773,365.497,256,365.497z"/>
	</g>
</g>
<g>
	<g>
		<path fill="white" d="M122.822,354.732l-11.652,33.298c-3.686,10.535,1.866,22.066,12.401,25.752c2.208,0.773,4.46,1.14,6.675,1.14
			c8.35,0,16.162-5.214,19.076-13.541l14.297-40.858C149.524,358.949,135.881,357.014,122.822,354.732z"/>
	</g>
</g>
<g>
	<g>
		<path fill="white" d="M400.83,388.029l-11.651-33.298c-13.059,2.281-26.703,4.217-40.798,5.791l14.297,40.858
			c2.914,8.328,10.726,13.541,19.076,13.541c2.214,0,4.467-0.366,6.675-1.14C398.964,410.095,404.516,398.564,400.83,388.029z"/>
	</g>
</g>
<g>
	<g>
		<path fill="white" d="M398.076,162.879c3.663,12.909,5.565,26.403,5.565,40.192c0,15.968-9.401,30.44-23.99,36.93
			c-2.258,1.004-56.063,24.604-122.425,24.604c-66.363,0-120.169-23.601-122.426-24.604c-14.589-6.49-23.99-20.964-23.99-36.93
			c0-13.982,1.956-27.66,5.721-40.732C62.612,173.158,0,194.879,0,237.392c0,28.656,28.164,51.246,83.712,67.141
			c15.937,4.561,33.641,8.416,52.648,11.511c13.087,2.13,26.799,3.898,40.974,5.29c18.78,1.845,38.378,3.025,58.456,3.5
			c6.69,0.158,13.429,0.244,20.211,0.244s13.521-0.085,20.211-0.244c20.076-0.474,39.676-1.656,58.456-3.5
			c14.176-1.392,27.886-3.158,40.973-5.29c19.009-3.095,36.713-6.95,52.65-11.511C483.836,288.638,512,266.048,512,237.392
			C512,195.486,450.928,173.799,398.076,162.879z"/>
	</g>
</g>
<g>
	<g>
		<path fill="white" d="M353.079,157.802c-2.924-6.176-6.424-12.024-10.435-17.475c-4.13-5.608-8.789-10.801-13.917-15.492
			c-18.85-17.236-43.944-27.756-71.499-27.756c-27.449,0-52.461,10.433-71.285,27.551c-5.125,4.659-9.785,9.821-13.916,15.396
			c-4.033,5.439-7.556,11.277-10.501,17.446c-6.594,13.813-10.293,29.273-10.293,45.599c0,0,47.456,21.113,105.995,21.113
			c58.538,0,105.993-21.113,105.993-21.113C363.221,186.874,359.574,171.533,353.079,157.802z"/>
	</g>
</g>
<g>
</g>
<g>
</g>
<g>
</g>
<g>
</g>
<g>
</g>
<g>
</g>
<g>
</g>
<g>
</g>
<g>
</g>
<g>
</g>
<g>
</g>
<g>
</g>
<g>
</g>
<g>
</g>
<g>
</g>
</svg>
